<?xml version="1.0" encoding="UTF-8" standalone="no"?>
<svg
   version="1.1"
   viewBox="0 0 877.365 445.20301"
   fill="none"
   stroke="none"
   stroke-linecap="square"
   stroke-miterlimit="10"
   id="svg44"
   sodipodi:docname="Resilience Triangle.svg"
   width="877.36499"
   height="445.203"
   inkscape:version="1.4 (86a8ad7, 2024-10-11)"
   xmlns:inkscape="http://www.inkscape.org/namespaces/inkscape"
   xmlns:sodipodi="http://sodipodi.sourceforge.net/DTD/sodipodi-0.dtd"
   xmlns="http://www.w3.org/2000/svg"
   xmlns:svg="http://www.w3.org/2000/svg">
  <defs
     id="defs44" />
  <sodipodi:namedview
     id="namedview44"
     pagecolor="#ffffff"
     bordercolor="#666666"
     borderopacity="1.0"
     inkscape:showpageshadow="2"
     inkscape:pageopacity="0.0"
     inkscape:pagecheckerboard="0"
     inkscape:deskcolor="#d1d1d1"
     inkscape:zoom="1.0625"
     inkscape:cx="498.35294"
     inkscape:cy="233.88235"
     inkscape:window-width="1920"
     inkscape:window-height="974"
     inkscape:window-x="-11"
     inkscape:window-y="-11"
     inkscape:window-maximized="1"
     inkscape:current-layer="g44" />
  <clipPath
     id="p.0">
    <path
       d="M 0,0 H 960 V 720 H 0 Z"
       clip-rule="nonzero"
       id="path1" />
  </clipPath>
  <g
     clip-path="url(#p.0)"
     id="g44"
     transform="translate(-23.600549,-42.459118)">
    <path
       fill="#000000"
       fill-opacity="0"
       d="M 0,0 H 960 V 720 H 0 Z"
       fill-rule="evenodd"
       id="path2" />
    <path
       fill="#000000"
       fill-opacity="0"
       d="M 149.73336,456.51664 148.39156,32.237294"
       fill-rule="evenodd"
       id="path3"
       style="stroke-width:1.7041" />
    <path
       stroke="#000000"
       stroke-width="1.64785"
       stroke-linejoin="round"
       stroke-linecap="butt"
       d="M 149.73406,456.51528 148.42321,69.757292"
       fill-rule="evenodd"
       id="path4" />
    <path
       fill="#000000"
       stroke="#000000"
       stroke-width="1.7041"
       stroke-linecap="butt"
       d="m 151.23859,68.805865 -2.83915,-7.724409 -2.79025,7.742211 z"
       fill-rule="evenodd"
       id="path5" />
    <path
       fill="#000000"
       fill-opacity="0"
       d="M 87.057569,425.26598 V 136.67013 h 50.451951 v 288.59585 z"
       fill-rule="evenodd"
       id="path6"
       style="stroke-width:1.7041" />
    <path
       fill="#000000"
       d="m 110.09053,393.18108 5.69807,-0.45265 v 0.45265 q -2.13012,0.71891 -3.19517,1.83723 -1.57097,1.59759 -1.57097,4.1271 0,3.46144 2.74252,5.24542 2.28988,1.5177 5.48506,1.5177 2.58277,0 4.71289,-0.98517 2.13012,-1.01181 3.1153,-2.63603 0.98518,-1.62422 0.98518,-3.3283 0,-0.98518 -0.23965,-1.91712 -0.26626,-0.93192 -0.74553,-1.8106 h -5.2188 q -1.35795,0 -1.78397,0.21302 -0.42602,0.21301 -0.63903,0.63903 -0.21302,0.42603 -0.21302,1.51772 h -0.5059 v -6.97615 h 0.5059 v 0.31952 q 0,1.03843 0.69229,1.43783 0.47928,0.26627 1.94373,0.26627 h 5.51168 q 0.82543,1.51771 1.22482,3.00879 0.3994,1.49109 0.3994,3.32831 0,5.21879 -3.38155,7.93469 -2.5029,2.05024 -5.80458,2.05024 -2.36976,0 -4.55314,-1.14494 -2.60938,-1.35795 -3.99396,-3.72771 -1.17157,-1.99698 -1.17157,-4.68625 0,-0.98518 0.15976,-1.78398 0.15976,-0.82542 0.71892,-2.28987 0.26627,-0.74555 0.26627,-1.01182 0,-0.23963 -0.21302,-0.42602 -0.23963,-0.18638 -0.93193,-0.21301 z m 5.91108,-7.36223 h 2.74253 q -2.74253,-1.54433 -2.74253,-3.14191 0,-0.74555 0.45265,-1.22482 0.45265,-0.47928 1.03843,-0.47928 0.50591,0 0.87867,0.34615 0.34615,0.34613 0.34615,0.82541 0,0.47927 -0.45265,1.06506 -0.45265,0.55916 -0.45265,0.85205 0,0.23964 0.26627,0.5059 0.53253,0.61241 1.78397,1.25144 h 5.85783 q 1.0118,0 1.5177,-0.26626 0.37278,-0.15975 0.61241,-0.58578 0.23964,-0.45265 0.23964,-1.27807 h 0.47928 v 6.2306 h -0.47928 q 0,-0.93194 -0.29289,-1.38459 -0.21301,-0.31951 -0.69229,-0.45265 -0.21301,-0.0799 -1.27807,-0.0799 h -4.73952 q -2.13011,0 -2.52951,0.1065 -0.39939,0.0799 -0.58577,0.31952 -0.1864,0.21301 -0.1864,0.55915 0,0.42603 0.1864,0.93193 l -0.47929,0.13313 -1.49108,-3.67446 z m -6.36373,-8.62698 q 0,-0.55915 0.3994,-0.93192 0.37277,-0.3994 0.93193,-0.3994 0.55915,0 0.95855,0.3994 0.3994,0.37277 0.3994,0.93192 0,0.55917 -0.3994,0.95855 -0.3994,0.3994 -0.95855,0.3994 -0.55916,0 -0.93193,-0.37277 -0.3994,-0.39939 -0.3994,-0.98518 z m 6.36373,-1.09168 h 9.79855 q 1.14493,0 1.54433,-0.15975 0.37277,-0.1864 0.55916,-0.50592 0.18638,-0.31951 0.18638,-1.19818 h 0.47928 v 5.9377 h -0.47928 q 0,-0.9053 -0.15975,-1.19819 -0.18639,-0.31951 -0.58579,-0.47928 -0.3994,-0.18638 -1.54433,-0.18638 h -4.68626 q -1.99699,0 -2.58277,0.1065 -0.42603,0.1065 -0.58579,0.31952 -0.15976,0.18639 -0.15976,0.53253 0,0.37277 0.1864,0.9053 l -0.47929,0.18638 -1.49108,-3.67445 z m 11.18312,-11.99523 q 0.93193,0.9053 1.35795,1.75735 0.3994,0.85205 0.3994,1.83722 0,1.997 -1.67747,3.48808 -1.67747,1.49107 -4.28686,1.49107 -2.63602,0 -4.79277,-1.65083 -2.18337,-1.65085 -2.18337,-4.26024 0,-1.5976 1.0118,-2.66265 h -2.23662 q -2.10349,0 -2.58276,0.1065 -0.47928,0.10651 -0.63904,0.31952 -0.18639,0.21302 -0.18639,0.53253 0,0.34615 0.21301,0.9053 l -0.45265,0.18639 -1.49108,-3.64782 v -0.58579 h 14.08541 q 2.15674,0 2.63602,-0.1065 0.45265,-0.1065 0.63904,-0.31951 0.18638,-0.21302 0.18638,-0.50591 0,-0.37276 -0.213,-0.95855 l 0.45265,-0.15976 1.5177,3.6212 v 0.61241 z m -0.93192,0 h -6.28385 q -0.9053,0.0799 -1.65085,0.47927 -0.74553,0.3994 -1.11831,1.06507 -0.37277,0.66566 -0.37277,1.27806 0,1.17157 1.03843,2.1035 1.38458,1.19819 4.04723,1.19819 2.68927,0 4.1271,-1.17157 1.43784,-1.17157 1.43784,-2.60939 0,-1.19819 -1.22482,-2.34313 z m -14.75108,-16.56167 h 7.08265 v -3.27506 q 0,-1.14493 -0.47928,-1.65084 -0.5059,-0.53253 -1.99699,-0.71891 v -0.47928 h 6.1241 v 0.47928 q -1.06506,0.0266 -1.54433,0.29288 -0.50592,0.23965 -0.74555,0.71892 -0.23964,0.45265 -0.23964,1.35795 v 3.27506 h 5.67144 q 1.35795,0 1.8106,-0.15976 0.31952,-0.13313 0.55916,-0.55915 0.31952,-0.58579 0.31952,-1.22482 v -0.66566 h 0.5059 v 7.7483 h -0.5059 v -0.63904 q 0,-1.11831 -0.63903,-1.62421 -0.42603,-0.31952 -2.05025,-0.31952 h -11.6624 q -1.38457,0 -1.8106,0.18638 -0.34614,0.13314 -0.58578,0.53254 -0.31952,0.58578 -0.31952,1.22481 v 0.63904 h -0.47927 v -13.41975 l 3.96734,-0.18639 v 0.47929 q -1.27807,0.34614 -1.86385,0.79879 -0.58579,0.45265 -0.85205,1.14494 -0.26627,0.66566 -0.26627,2.07687 z m 4.87265,-21.12812 h 7.37553 q 2.13012,0 2.6094,-0.0799 0.45265,-0.10651 0.63904,-0.31953 0.18638,-0.23964 0.18638,-0.53252 0,-0.3994 -0.213,-0.93193 l 0.45265,-0.18639 1.5177,3.64783 v 0.61241 h -2.58277 q 1.7041,1.57096 2.15675,2.39638 0.42602,0.82542 0.42602,1.73072 0,1.03843 -0.58578,1.78398 -0.61241,0.74553 -1.54434,1.03843 -0.93193,0.29289 -2.63602,0.29289 h -5.4318 q -0.87868,0 -1.19819,0.18639 -0.34615,0.18639 -0.50591,0.55915 -0.18638,0.37277 -0.18638,1.33132 h -0.47928 v -4.28685 h 8.1477 q 1.7041,0 2.23663,-0.58578 0.53253,-0.58579 0.53253,-1.43784 0,-0.55916 -0.34615,-1.27808 -0.37276,-0.74553 -1.38458,-1.73071 h -6.89625 q -1.03843,0 -1.4112,0.37276 -0.37278,0.37278 -0.3994,1.57097 h -0.47928 z m 2.21,-6.49685 q -2.58277,-2.13012 -2.58277,-4.07385 0,-1.01182 0.5059,-1.73073 0.5059,-0.71892 1.65085,-1.14494 0.79879,-0.29289 2.44963,-0.29289 h 5.19217 q 1.17157,0 1.57095,-0.18639 0.34615,-0.13313 0.53254,-0.45265 0.18638,-0.34613 0.18638,-1.22481 h 0.47928 v 6.04421 h -0.47928 V 316.59 q 0,-0.85204 -0.26627,-1.17156 -0.26626,-0.34615 -0.77216,-0.47927 -0.18639,-0.0533 -1.25144,-0.0533 h -4.97915 q -1.67748,0 -2.42302,0.42603 -0.74554,0.42602 -0.74554,1.46445 0,1.57097 1.73073,3.14193 h 6.41698 q 1.25144,0 1.54433,-0.13313 0.37277,-0.18639 0.55916,-0.5059 0.18638,-0.34615 0.18638,-1.33133 h 0.47928 v 6.01758 h -0.47928 v -0.26627 q 0,-0.93192 -0.47927,-1.25143 -0.47928,-0.31952 -1.8106,-0.31952 h -4.5265 q -2.18338,0 -2.66265,0.1065 -0.47928,0.0799 -0.63903,0.29289 -0.1864,0.21301 -0.1864,0.55916 0,0.37277 0.1864,0.87867 l -0.47929,0.21302 -1.49108,-3.67446 v -0.58578 z m 5.35192,-20.42254 q 2.39638,0.47927 3.70108,1.9171 1.3047,1.43783 1.3047,3.19521 0,2.07686 -1.73072,3.6212 -1.75735,1.54433 -4.73951,1.54433 -2.87567,0 -4.65964,-1.70408 -1.8106,-1.73073 -1.8106,-4.12712 0,-1.78399 0.95855,-2.92894 0.95855,-1.17155 1.97037,-1.17155 0.5059,0 0.82541,0.31952 0.31952,0.31951 0.31952,0.9053 0,0.79878 -0.5059,1.19818 -0.2929,0.21302 -1.06506,0.2929 -0.79879,0.0799 -1.19819,0.53256 -0.3994,0.47926 -0.3994,1.30468 0,1.33133 0.98518,2.13012 1.3047,1.0917 3.43482,1.0917 2.18337,0 3.86084,-1.06507 1.67746,-1.09168 1.67746,-2.90228 0,-1.30473 -0.9053,-2.34316 -0.6124,-0.74555 -2.21,-1.43783 z m -11.58252,-5.28536 h 4.0206 v -2.84903 h 0.93193 v 2.84903 h 7.90807 q 1.17156,0 1.59758,-0.34615 0.3994,-0.34613 0.3994,-0.87866 0,-0.42604 -0.26627,-0.82542 -0.26626,-0.42603 -0.79879,-0.66567 v -0.5059 q 1.3047,0.45265 1.97036,1.3047 0.66567,0.85204 0.66567,1.75734 0,0.61241 -0.34615,1.1982 -0.34615,0.58578 -0.98518,0.87866 -0.63904,0.26627 -1.94374,0.26627 h -8.20095 v 1.94373 h -0.45265 q -0.2929,-0.74553 -0.98518,-1.49108 -0.69229,-0.77217 -1.65085,-1.38457 -0.5059,-0.2929 -1.86385,-0.85205 z m -2.7159,-7.14921 q 0,-0.55916 0.3994,-0.93193 0.37277,-0.3994 0.93193,-0.3994 0.55915,0 0.95855,0.3994 0.3994,0.37277 0.3994,0.93193 0,0.55916 -0.3994,0.95855 -0.3994,0.3994 -0.95855,0.3994 -0.55916,0 -0.93193,-0.37276 -0.3994,-0.3994 -0.3994,-0.98519 z m 6.36373,-1.09168 h 9.79855 q 1.14493,0 1.54433,-0.15977 0.37277,-0.18638 0.55916,-0.5059 0.18638,-0.31951 0.18638,-1.19819 h 0.47928 v 5.93771 h -0.47928 q 0,-0.9053 -0.15975,-1.1982 -0.18639,-0.31951 -0.58579,-0.47927 -0.3994,-0.18638 -1.54433,-0.18638 h -4.68626 q -1.99699,0 -2.58277,0.1065 -0.42603,0.1065 -0.58579,0.31952 -0.15976,0.18638 -0.15976,0.53253 0,0.37277 0.1864,0.9053 l -0.47929,0.18638 -1.49108,-3.67445 z m 0,-9.33259 q 0,-2.76915 2.10349,-4.44662 1.8106,-1.43783 4.12711,-1.43783 1.65084,0 3.3283,0.7988 1.67747,0.77217 2.52952,2.15675 0.85205,1.38457 0.85205,3.06203 0,2.76917 -2.21,4.39337 -1.83722,1.35795 -4.15373,1.35795 -1.67747,0 -3.32831,-0.82542 -1.65084,-0.82541 -2.44963,-2.18336 -0.7988,-1.35795 -0.7988,-2.87567 z m 0.87867,0.3994 q 0,0.71892 0.42603,1.43783 0.3994,0.69229 1.46445,1.14494 1.03844,0.42603 2.68928,0.42603 2.66265,0 4.60639,-1.03844 1.9171,-1.06506 1.9171,-2.79578 0,-1.3047 -1.06507,-2.13012 -1.06505,-0.85204 -3.64782,-0.85204 -3.24843,0 -5.11228,1.4112 -1.27808,0.93193 -1.27808,2.39638 z m 1.7041,-11.63577 q -2.58277,-2.13012 -2.58277,-4.07385 0,-1.01181 0.5059,-1.73073 0.5059,-0.7189 1.65085,-1.14493 0.79879,-0.29289 2.44963,-0.29289 h 5.19217 q 1.17157,0 1.57095,-0.18638 0.34615,-0.13314 0.53254,-0.45265 0.18638,-0.34615 0.18638,-1.22483 h 0.47928 v 6.04421 h -0.47928 v -0.26626 q 0,-0.85205 -0.26627,-1.17157 -0.26626,-0.34614 -0.77216,-0.47927 -0.18639,-0.0533 -1.25144,-0.0533 h -4.97915 q -1.67748,0 -2.42302,0.42602 -0.74554,0.42602 -0.74554,1.46445 0,1.57097 1.73073,3.14193 h 6.41698 q 1.25144,0 1.54433,-0.13313 0.37277,-0.18639 0.55916,-0.5059 0.18638,-0.34615 0.18638,-1.33133 h 0.47928 v 6.01758 h -0.47928 v -0.26627 q 0,-0.93191 -0.47927,-1.25143 -0.47928,-0.31952 -1.8106,-0.31952 h -4.5265 q -2.18338,0 -2.66265,0.1065 -0.47928,0.0799 -0.63903,0.2929 -0.1864,0.213 -0.1864,0.55915 0,0.37277 0.1864,0.87867 l -0.47929,0.21302 -1.49108,-3.67446 v -0.58578 z m 8.22758,-16.9877 q 1.43783,1.89049 1.67747,2.36977 0.34615,0.7189 0.34615,1.5177 0,1.27807 -0.87868,2.1035 -0.87867,0.79878 -2.28987,0.79878 -0.87868,0 -1.54434,-0.3994 -0.9053,-0.53252 -1.7041,-1.89047 -0.79879,-1.35795 -1.94373,-4.49988 h -0.47928 q -1.8106,0 -2.47627,0.58579 -0.69228,0.58578 -0.69228,1.67746 0,0.85205 0.45265,1.33133 0.45265,0.5059 1.03843,0.5059 l 0.77217,-0.0266 q 0.61241,0 0.95855,0.31952 0.31953,0.31951 0.31953,0.82543 0,0.47927 -0.34615,0.79878 -0.34615,0.31952 -0.95855,0.31952 -1.14495,0 -2.1035,-1.17157 -0.95855,-1.17156 -0.95855,-3.30168 0,-1.62422 0.55915,-2.66265 0.3994,-0.77217 1.27808,-1.14493 0.58579,-0.23964 2.34312,-0.23964 h 4.15374 q 1.73073,0 2.13011,-0.0532 0.3994,-0.0799 0.53254,-0.23965 0.13313,-0.15975 0.13313,-0.34613 0,-0.21302 -0.1065,-0.37278 -0.15977,-0.29289 -0.95855,-1.09169 h 0.74553 q 1.99699,1.49109 1.99699,2.84904 0,0.66566 -0.45265,1.06506 -0.45265,0.37277 -1.54434,0.37277 z m -0.87867,0 h -4.63301 q 0.7988,2.02362 1.11831,2.6094 0.58579,1.03843 1.22482,1.49108 0.63904,0.45265 1.4112,0.45265 0.95855,0 1.59759,-0.55916 0.61241,-0.58577 0.61241,-1.33132 0,-1.0118 -1.33132,-2.66265 z m -16.29541,-9.38582 h 16.16228 q 1.14493,0 1.5177,-0.15977 0.37277,-0.15976 0.58579,-0.5059 0.18638,-0.34615 0.18638,-1.3047 h 0.47928 v 5.99095 h -0.47928 q 0,-0.85203 -0.15975,-1.14493 -0.18639,-0.31952 -0.58579,-0.47927 -0.3994,-0.1864 -1.54433,-0.1864 h -11.07662 q -2.05024,0 -2.52951,0.1065 -0.47928,0.0799 -0.63904,0.29289 -0.18639,0.21302 -0.18639,0.53253 0,0.34615 0.21301,0.87867 l -0.45265,0.21302 -1.49108,-3.6212 z m 0,-6.48356 q 0,-0.55915 0.3994,-0.93192 0.37277,-0.3994 0.93193,-0.3994 0.55915,0 0.95855,0.3994 0.3994,0.37277 0.3994,0.93192 0,0.55916 -0.3994,0.95855 -0.3994,0.3994 -0.95855,0.3994 -0.55916,0 -0.93193,-0.37277 -0.3994,-0.3994 -0.3994,-0.98518 z m 6.36373,-1.09168 h 9.79855 q 1.14493,0 1.54433,-0.15977 0.37277,-0.18638 0.55916,-0.5059 0.18638,-0.31952 0.18638,-1.19819 h 0.47928 v 5.93771 h -0.47928 q 0,-0.9053 -0.15975,-1.19819 -0.18639,-0.31952 -0.58579,-0.47928 -0.3994,-0.18638 -1.54433,-0.18638 h -4.68626 q -1.99699,0 -2.58277,0.1065 -0.42603,0.1065 -0.58579,0.31951 -0.15976,0.18639 -0.15976,0.53254 0,0.37276 0.1864,0.9053 l -0.47929,0.18638 -1.49108,-3.67445 z m -3.64783,-6.90958 h 4.0206 v -2.84903 h 0.93193 v 2.84903 h 7.90807 q 1.17156,0 1.59758,-0.34613 0.3994,-0.34615 0.3994,-0.87869 0,-0.42601 -0.26627,-0.82541 -0.26626,-0.42603 -0.79879,-0.66567 v -0.5059 q 1.3047,0.45265 1.97036,1.3047 0.66567,0.85205 0.66567,1.75735 0,0.6124 -0.34615,1.19818 -0.34615,0.58579 -0.98518,0.87869 -0.63904,0.26625 -1.94374,0.26625 h -8.20095 v 1.94373 h -0.45265 q -0.2929,-0.74553 -0.98518,-1.49107 -0.69229,-0.77218 -1.65085,-1.38458 -0.5059,-0.2929 -1.86385,-0.85205 z m 4.0206,-3.34162 v -5.69807 h 0.47928 v 0.2929 q 0,0.58578 0.26627,0.9053 0.26626,0.29288 0.63903,0.29288 0.53253,0 1.43783,-0.45265 l 6.15072,-2.95553 -6.7365,-2.74253 q -0.53253,-0.21301 -1.06506,-0.21301 -0.23964,0 -0.37277,0.0799 -0.13314,0.1065 -0.21302,0.34615 -0.1065,0.21301 -0.1065,0.7988 h -0.47928 v -3.96735 h 0.47928 q 0.0533,0.47927 0.213,0.74553 0.15977,0.26627 0.61242,0.58579 0.18638,0.13313 1.0118,0.45265 l 12.19493,4.97915 q 1.75735,0.71891 2.66265,1.89048 0.9053,1.14495 0.9053,2.23663 0,0.77217 -0.45265,1.27807 -0.45265,0.5059 -1.03843,0.5059 -0.55915,0 -0.9053,-0.34614 -0.31952,-0.37278 -0.31952,-1.01181 0,-0.45265 0.29289,-1.19819 0.18639,-0.53253 0.18639,-0.66566 0,-0.3994 -0.42603,-0.87868 -0.3994,-0.47927 -1.57096,-0.95855 l -2.13012,-0.85205 -9.21275,4.36675 q -0.3994,0.21301 -1.01182,0.63903 -0.47927,0.34615 -0.63903,0.55916 -0.21302,0.29289 -0.37277,0.98517 z"
       fill-rule="nonzero"
       id="path7"
       style="stroke-width:1.7041" />
    <path
       fill="#000000"
       fill-opacity="0"
       d="m 149.93017,174.16021 726.02488,3.16666"
       fill-rule="evenodd"
       id="path8"
       style="stroke-width:1.7041" />
    <path
       stroke="#6aa84f"
       stroke-width="1.7041"
       stroke-linejoin="round"
       stroke-linecap="butt"
       d="m 149.93017,174.16021 726.02488,3.16666"
       fill-rule="evenodd"
       id="path9" />
    <path
       fill="#000000"
       fill-opacity="0"
       d="M 151.55823,174.16021 H 128.7475"
       fill-rule="evenodd"
       id="path10"
       style="stroke-width:1.7041" />
    <path
       stroke="#000000"
       stroke-width="1.7041"
       stroke-linejoin="round"
       stroke-linecap="butt"
       d="M 151.55823,174.16021 H 128.7475"
       fill-rule="evenodd"
       id="path11" />
    <path
       fill="#000000"
       fill-opacity="0"
       d="M 6.5862306,122.32622 H 168.51547 v 35.31636 H 6.5862306 Z"
       fill-rule="evenodd"
       id="path12"
       style="stroke-width:1.7041" />
    <path
       fill="#000000"
       d="m 33.046693,157.29424 v -14.64457 h 9.878419 v 1.73073 h -7.934686 v 4.52651 h 6.869633 v 1.73071 h -6.869633 v 6.65662 z m 19.121134,0 v -1.57095 q -1.251436,1.8106 -3.381553,1.8106 -0.931932,0 -1.75735,-0.34615 -0.798798,-0.37277 -1.198197,-0.9053 -0.3994,-0.55915 -0.559152,-1.35795 -0.106502,-0.5059 -0.106502,-1.67747 v -6.55011 h 1.810612 v 5.88445 q 0,1.38458 0.106502,1.89048 0.159753,0.69228 0.692285,1.11831 0.559164,0.39939 1.384581,0.39939 0.798787,0 1.491084,-0.39939 0.718916,-0.42603 1.011801,-1.14494 0.319517,-0.71892 0.319517,-2.07687 v -5.67143 h 1.783981 v 10.59733 z m 4.370079,0 v -14.64457 h 1.8106 v 14.64457 z m 4.54314,0 v -14.64457 h 1.810601 v 14.64457 z m 4.516522,4.07385 -0.213016,-1.67747 q 0.585783,0.15977 1.038433,0.15977 0.585784,0 0.93192,-0.21302 0.37278,-0.18638 0.612415,-0.53253 0.159764,-0.29288 0.559151,-1.35795 0.0266,-0.13313 0.159765,-0.42602 l -4.047231,-10.62396 h 1.943733 l 2.209999,6.12408 q 0.426031,1.17157 0.772167,2.47627 0.319517,-1.25145 0.745548,-2.42301 l 2.26325,-6.17734 h 1.783969 l -4.0206,10.78371 q -0.665653,1.73073 -1.011801,2.39639 -0.479282,0.9053 -1.118316,1.3047 -0.612402,0.42603 -1.464452,0.42603 -0.5059,0 -1.144934,-0.23965 z"
       fill-rule="nonzero"
       id="path13"
       style="stroke-width:1.7041" />
    <path
       fill="#000000"
       d="m 27.365255,181.83319 v -14.64456 h 9.87843 v 1.73072 h -7.934697 v 4.5265 h 6.869645 v 1.73073 h -6.869645 v 6.65661 z m 19.121146,0 v -1.57096 q -1.251437,1.8106 -3.381554,1.8106 -0.931931,0 -1.757349,-0.34615 -0.798799,-0.37277 -1.198198,-0.9053 -0.399399,-0.55915 -0.559152,-1.35795 -0.106501,-0.5059 -0.106501,-1.67747 v -6.55011 h 1.810612 v 5.88446 q 0,1.38457 0.106501,1.89047 0.159753,0.6923 0.692285,1.11832 0.559164,0.3994 1.384582,0.3994 0.798786,0 1.491083,-0.3994 0.718916,-0.42602 1.011802,-1.14494 0.319517,-0.71891 0.319517,-2.07686 v -5.67145 h 1.783981 v 10.59734 z m 4.423329,0 v -10.59734 h 1.597585 v 1.49108 q 1.171566,-1.73072 3.381566,-1.73072 0.95855,0 1.757349,0.34615 0.825418,0.34614 1.224817,0.9053 0.399399,0.55915 0.559152,1.3047 0.07991,0.5059 0.07991,1.75735 v 6.52348 h -1.783973 v -6.44361 q 0,-1.1183 -0.213015,-1.65084 -0.213016,-0.53253 -0.745548,-0.85204 -0.53252,-0.34615 -1.251436,-0.34615 -1.144947,0 -1.996984,0.74554 -0.82543,0.71892 -0.82543,2.74252 v 5.80458 z m 18.295716,-3.88746 1.75735,0.23963 q -0.292886,1.8106 -1.491084,2.84904 -1.198185,1.03843 -2.928915,1.03843 -2.183368,0 -3.514687,-1.4112 -1.304699,-1.43783 -1.304699,-4.10048 0,-1.70409 0.559151,-2.98217 0.585784,-1.3047 1.730718,-1.94373 1.171567,-0.63904 2.556148,-0.63904 1.704099,0 2.795783,0.87868 1.118315,0.85204 1.437832,2.47626 l -1.757349,0.26626 q -0.239647,-1.06505 -0.878681,-1.59758 -0.639034,-0.55915 -1.544334,-0.55915 -1.35795,0 -2.209999,0.98517 -0.85205,0.95856 -0.85205,3.06205 0,2.15674 0.82543,3.1153 0.825418,0.95855 2.130117,0.95855 1.065053,0 1.75735,-0.63904 0.718916,-0.63903 0.931919,-1.99698 z m 7.215782,2.28987 0.266266,1.57096 q -0.772167,0.15977 -1.35795,0.15977 -0.985183,0 -1.517715,-0.2929 -0.532532,-0.31952 -0.772167,-0.82542 -0.213015,-0.5059 -0.213015,-2.13011 v -6.09747 h -1.304688 v -1.38458 h 1.304688 v -2.63602 l 1.78398,-1.06505 v 3.70107 h 1.810601 v 1.38458 h -1.810601 v 6.20397 q 0,0.77216 0.07991,0.98518 0.106501,0.21301 0.319517,0.34615 0.213003,0.13313 0.612402,0.13313 0.319517,0 0.798799,-0.0533 z m 1.767328,-10.9701 v -2.07687 h 1.810601 v 2.07687 z m 0,12.56769 v -10.59734 h 1.810601 v 10.59734 z m 3.877488,-5.29866 q 0,-2.95555 1.624216,-4.36675 1.35795,-1.17157 3.328303,-1.17157 2.183356,0 3.567937,1.43784 1.411201,1.4112 1.411201,3.94071 0,2.05024 -0.612402,3.2218 -0.612415,1.17157 -1.8106,1.83724 -1.171567,0.63903 -2.556136,0.63903 -2.21,0 -3.594569,-1.4112 -1.35795,-1.43783 -1.35795,-4.1271 z m 1.837219,0 q 0,2.0236 0.878681,3.03541 0.9053,1.01181 2.236619,1.01181 1.357938,0 2.236619,-1.01181 0.878668,-1.01181 0.878668,-3.08868 0,-1.97035 -0.9053,-2.98216 -0.878669,-1.0118 -2.209987,-1.0118 -1.331319,0 -2.236619,1.0118 -0.878681,0.98518 -0.878681,3.03543 z m 10.201266,5.29866 v -10.59734 h 1.597585 v 1.49108 q 1.171567,-1.73072 3.381566,-1.73072 0.95855,0 1.75735,0.34615 0.82542,0.34614 1.22482,0.9053 0.3994,0.55915 0.55915,1.3047 0.0799,0.5059 0.0799,1.75735 v 6.52348 h -1.78398 v -6.44361 q 0,-1.1183 -0.21301,-1.65084 -0.21301,-0.53253 -0.745543,-0.85204 -0.532533,-0.34615 -1.251449,-0.34615 -1.144935,0 -1.996984,0.74554 -0.825418,0.71892 -0.825418,2.74252 v 5.80458 z m 18.295721,-1.30469 q -1.0118,0.85204 -1.94373,1.19818 -0.9053,0.34615 -1.97037,0.34615 -1.75734,0 -2.68927,-0.85205 -0.93193,-0.85205 -0.93193,-2.18337 0,-0.77216 0.34615,-1.4112 0.34615,-0.66566 0.93193,-1.03843 0.58578,-0.3994 1.30469,-0.58578 0.50591,-0.15977 1.5976,-0.2929 2.15673,-0.23964 3.19517,-0.6124 0,-0.37277 0,-0.45266 0,-1.11831 -0.50591,-1.57096 -0.69228,-0.58578 -2.05023,-0.58578 -1.25145,0 -1.86385,0.45265 -0.61242,0.42603 -0.9053,1.54433 l -1.75735,-0.23963 q 0.23963,-1.11832 0.79879,-1.8106 0.55916,-0.69229 1.59759,-1.06507 1.03844,-0.37277 2.39639,-0.37277 1.35795,0 2.21,0.31952 0.85203,0.31952 1.25143,0.7988 0.3994,0.47927 0.55917,1.22482 0.0799,0.45265 0.0799,1.65083 v 2.39638 q 0,2.5029 0.1065,3.16857 0.13314,0.66565 0.47927,1.27806 h -1.89047 q -0.26626,-0.55916 -0.34615,-1.30469 z m -0.15976,-4.0206 q -0.98518,0.3994 -2.92891,0.69228 -1.11831,0.15977 -1.57096,0.37278 -0.45265,0.18638 -0.71892,0.55915 -0.23963,0.37277 -0.23963,0.85205 0,0.71892 0.53252,1.19819 0.55916,0.47928 1.59759,0.47928 1.03844,0 1.83722,-0.45265 0.82543,-0.45265 1.1982,-1.25145 0.29289,-0.6124 0.29289,-1.78397 z m 4.55646,5.32529 v -14.64456 h 1.8106 v 14.64456 z"
       fill-rule="nonzero"
       id="path14"
       style="stroke-width:1.7041" />
    <path
       fill="#000000"
       fill-opacity="0"
       d="m 148.39156,456.51664 750.33839,-2.73728"
       fill-rule="evenodd"
       id="path15"
       style="stroke-width:1.7041" />
    <path
       stroke="#000000"
       stroke-width="1.7041"
       stroke-linejoin="round"
       stroke-linecap="butt"
       d="m 148.39156,456.51664 740.11393,-2.69993"
       fill-rule="evenodd"
       id="path16" />
    <path
       fill="#000000"
       stroke="#000000"
       stroke-width="1.7041"
       stroke-linecap="butt"
       d="m 888.51577,456.63136 7.72293,-2.8429 -7.74352,-2.78646 z"
       fill-rule="evenodd"
       id="path17" />
    <path
       fill="#000000"
       fill-opacity="0"
       d="m 347.67228,174.68353 -0.75142,232.56195"
       fill-rule="evenodd"
       id="path18"
       style="stroke-width:1.7041" />
    <path
       stroke="#bf9000"
       stroke-width="1.7041"
       stroke-linejoin="round"
       stroke-linecap="butt"
       d="m 347.67228,174.68353 -0.75142,232.56195"
       fill-rule="evenodd"
       id="path19" />
    <path
       fill="#000000"
       fill-opacity="0"
       d="m 150.32377,174.38384 196.60157,0.91245"
       fill-rule="evenodd"
       id="path20"
       style="stroke-width:1.7041" />
    <path
       stroke="#bf9000"
       stroke-width="1.7041"
       stroke-linejoin="round"
       stroke-linecap="butt"
       d="m 150.32377,174.38384 196.60157,0.91245"
       fill-rule="evenodd"
       id="path21" />
    <path
       fill="#000000"
       fill-opacity="0"
       d="m 346.92087,406.41641 c 17.99466,-1.2983 81.794,-1.14588 107.96819,-7.78981 26.17421,-6.64393 32.8898,-22.37519 49.07693,-32.07378 16.18708,-9.69859 32.03129,-16.72471 48.04567,-26.11767 16.01436,-9.39295 29.35678,-18.93834 48.04061,-30.24009 18.68389,-11.30176 47.27272,-21.00033 64.06258,-37.57038 16.78993,-16.57004 22.47099,-45.9669 36.67695,-61.84988 14.2059,-15.88296 40.46564,-27.87327 48.55873,-33.44793"
       fill-rule="evenodd"
       id="path22"
       style="stroke-width:1.7041" />
    <path
       stroke="#bf9000"
       stroke-width="1.7041"
       stroke-linejoin="round"
       stroke-linecap="butt"
       d="m 346.92087,406.41641 c 17.99466,-1.2983 81.794,-1.14588 107.96819,-7.78981 26.17421,-6.64393 32.8898,-22.37519 49.07693,-32.07378 16.18708,-9.69859 32.03129,-16.72471 48.04567,-26.11767 16.01436,-9.39295 29.35678,-18.93834 48.04061,-30.24009 18.68389,-11.30176 47.27272,-21.00033 64.06258,-37.57038 16.78993,-16.57004 22.47099,-45.9669 36.67695,-61.84988 14.2059,-15.88296 40.46564,-27.87327 48.55873,-33.44793"
       fill-rule="evenodd"
       id="path23" />
    <path
       fill="#000000"
       fill-opacity="0"
       d="m 430.71224,440.77726 h 106.11011 v 46.05082 H 430.71224 Z"
       fill-rule="evenodd"
       id="path24"
       style="stroke-width:1.7041" />
    <path
       fill="#000000"
       d="m 461.83855,464.23623 0.18639,4.23362 h -0.50592 q -0.13312,-1.11832 -0.39938,-1.59759 -0.3994,-0.77216 -1.09169,-1.14494 -0.69229,-0.37277 -1.81061,-0.37277 h -2.5295 v 13.79252 q 0,1.67746 0.34613,2.07686 0.5059,0.55917 1.57097,0.55917 h 0.6124 v 0.5059 h -7.6418 v -0.5059 h 0.63905 q 1.14493,0 1.62421,-0.6923 0.29289,-0.42602 0.29289,-1.94373 v -13.79252 h -2.18337 q -1.25145,0 -1.78398,0.18638 -0.69229,0.26627 -1.19819,0.98519 -0.47928,0.71891 -0.58578,1.94373 h -0.5059 l 0.213,-4.23362 z m 3.87415,-0.87866 q 0.55916,0 0.93193,0.3994 0.3994,0.37276 0.3994,0.93193 0,0.55915 -0.3994,0.95855 -0.37277,0.3994 -0.93193,0.3994 -0.55915,0 -0.95855,-0.3994 -0.3994,-0.3994 -0.3994,-0.95855 0,-0.55917 0.37277,-0.93193 0.39939,-0.3994 0.98518,-0.3994 z m 1.09168,6.36373 v 9.79855 q 0,1.14493 0.15977,1.54433 0.18638,0.37277 0.5059,0.55915 0.31951,0.18639 1.19819,0.18639 v 0.47928 h -5.93771 v -0.47928 q 0.9053,0 1.1982,-0.15976 0.31952,-0.18639 0.47927,-0.58578 0.18638,-0.3994 0.18638,-1.54433 v -4.68627 q 0,-1.99698 -0.1065,-2.58277 -0.1065,-0.42603 -0.31952,-0.58578 -0.18638,-0.15976 -0.53253,-0.15976 -0.37277,0 -0.9053,0.18638 l -0.18638,-0.47927 3.67445,-1.49108 z m 6.98946,2.6094 q 1.33132,-1.33133 1.57096,-1.54435 0.61241,-0.5059 1.3047,-0.77217 0.69229,-0.29288 1.35795,-0.29288 1.14494,0 1.97036,0.66566 0.82541,0.66566 1.11831,1.94374 1.35795,-1.5976 2.28988,-2.1035 0.95855,-0.5059 1.97036,-0.5059 0.95855,0 1.70409,0.5059 0.77217,0.5059 1.19819,1.62422 0.2929,0.77216 0.2929,2.423 v 5.24543 q 0,1.14493 0.18638,1.57095 0.13313,0.2929 0.47927,0.5059 0.37278,0.21302 1.17157,0.21302 v 0.47928 h -6.01759 v -0.47928 h 0.26627 q 0.77217,0 1.22482,-0.31952 0.29289,-0.21302 0.42603,-0.66567 0.0533,-0.23963 0.0533,-1.30468 v -5.24543 q 0,-1.49107 -0.34615,-2.10349 -0.53253,-0.85205 -1.67747,-0.85205 -0.69228,0 -1.4112,0.37277 -0.71892,0.34615 -1.73072,1.3047 l -0.0266,0.13313 0.0266,0.58579 v 5.80458 q 0,1.25143 0.13314,1.57095 0.15975,0.2929 0.53252,0.5059 0.3994,0.21302 1.33133,0.21302 v 0.47928 h -6.17735 v -0.47928 q 1.01181,0 1.38458,-0.23964 0.3994,-0.23963 0.53253,-0.71891 0.0799,-0.23964 0.0799,-1.33132 v -5.24543 q 0,-1.49107 -0.45265,-2.13012 -0.58578,-0.85204 -1.62422,-0.85204 -0.7189,0 -1.43782,0.37277 -1.09169,0.58578 -1.7041,1.33132 v 6.5235 q 0,1.19818 0.15976,1.57095 0.18639,0.34615 0.50591,0.53253 0.31952,0.18639 1.33132,0.18639 v 0.47928 h -6.04422 v -0.47928 q 0.85205,0 1.17157,-0.18639 0.34615,-0.18638 0.50591,-0.55915 0.18639,-0.3994 0.18639,-1.54433 v -4.65965 q 0,-1.99698 -0.13314,-2.58277 -0.0799,-0.45265 -0.29289,-0.6124 -0.18639,-0.15976 -0.53254,-0.15976 -0.37276,0 -0.9053,0.18638 l -0.18638,-0.47927 3.67446,-1.49108 h 0.55915 z m 19.63702,2.34312 q 0,2.7159 1.33134,4.26024 1.33131,1.54434 3.11529,1.54434 1.19819,0 2.07687,-0.63904 0.9053,-0.66566 1.49107,-2.26325 l 0.42603,0.26626 q -0.29289,1.8106 -1.65084,3.32831 -1.33132,1.49109 -3.35494,1.49109 -2.18337,0 -3.75433,-1.7041 -1.57097,-1.73072 -1.57097,-4.60639 0,-3.14191 1.5976,-4.87263 1.62422,-1.75735 4.04722,-1.75735 2.05024,0 3.35493,1.35795 1.33133,1.33132 1.33133,3.59457 z m 0,-0.77217 h 5.64482 q -0.0532,-1.17157 -0.26627,-1.65084 -0.34613,-0.74554 -1.0118,-1.17156 -0.63903,-0.42603 -1.35795,-0.42603 -1.11831,0 -1.99698,0.87868 -0.85205,0.85205 -1.01182,2.36975 z"
       fill-rule="nonzero"
       id="path25"
       style="stroke-width:1.7041" />
    <path
       fill="#000000"
       fill-opacity="0"
       d="m 295.54307,143.32101 47.60728,28.0706"
       fill-rule="evenodd"
       id="path26"
       style="stroke-width:1.7041" />
    <path
       stroke="#000000"
       stroke-width="1.7041"
       stroke-linejoin="round"
       stroke-linecap="butt"
       d="m 295.54307,143.32101 38.79974,22.87743"
       fill-rule="evenodd"
       id="path27" />
    <path
       fill="#000000"
       stroke="#000000"
       stroke-width="1.7041"
       stroke-linecap="butt"
       d="m 332.91321,168.62307 8.09122,1.50324 -5.23199,-6.35246 z"
       fill-rule="evenodd"
       id="path28" />
    <path
       fill="#000000"
       fill-opacity="0"
       d="m 219.807,106.06352 h 145.34452 v 27.15817 H 219.807 Z"
       fill-rule="evenodd"
       id="path29"
       style="stroke-width:1.7041" />
    <path
       fill="#000000"
       d="m 238.36565,133.15352 -3.03542,-11.3695 h 1.54434 l 1.73072,7.45542 q 0.29289,1.17156 0.47928,2.3165 0.45265,-1.8106 0.53253,-2.1035 l 2.15674,-7.66842 h 1.81061 l 1.6242,5.75132 q 0.61242,2.13012 0.9053,4.0206 0.21302,-1.06507 0.55917,-2.47627 l 1.78397,-7.29565 h 1.51771 l -3.1153,11.3695 h -1.46445 l -2.39638,-8.68023 q -0.2929,-1.06505 -0.34615,-1.33132 -0.18639,0.7988 -0.34615,1.33132 l -2.423,8.68023 z m 18.17751,-2.66265 1.43783,0.18639 q -0.31951,1.27808 -1.25143,1.97036 -0.93193,0.69229 -2.36977,0.69229 -1.8106,0 -2.87565,-1.11831 -1.03843,-1.11831 -1.03843,-3.1153 0,-2.07686 1.06505,-3.22181 1.06507,-1.17155 2.76915,-1.17155 1.67747,0 2.7159,1.14493 1.03844,1.11832 1.03844,3.16855 0,0.1065 0,0.37277 h -6.15072 q 0.0799,1.35795 0.77217,2.07687 0.69229,0.71891 1.73073,0.71891 0.77216,0 1.3047,-0.3994 0.53252,-0.3994 0.85203,-1.3047 z m -4.57975,-2.26325 h 4.60638 q -0.1065,-1.03843 -0.53253,-1.54433 -0.66565,-0.7988 -1.73072,-0.7988 -0.95855,0 -1.62421,0.63905 -0.63904,0.63903 -0.71892,1.70408 z m 13.15411,3.9141 q -0.77217,0.66567 -1.49109,0.93192 -0.71891,0.26627 -1.54433,0.26627 -1.35795,0 -2.07687,-0.66566 -0.71891,-0.66566 -0.71891,-1.70409 0,-0.58579 0.26626,-1.09169 0.26627,-0.5059 0.71892,-0.7988 0.45265,-0.31951 1.0118,-0.47927 0.3994,-0.1065 1.22482,-0.18639 1.7041,-0.21301 2.5029,-0.47927 0,-0.2929 0,-0.37277 0,-0.85205 -0.3994,-1.1982 -0.53254,-0.47928 -1.57097,-0.47928 -0.98518,0 -1.46445,0.34615 -0.47928,0.34615 -0.6923,1.22482 l -1.35795,-0.18639 q 0.1864,-0.87867 0.61242,-1.4112 0.42601,-0.55915 1.22481,-0.85205 0.7988,-0.29288 1.86385,-0.29288 1.06507,0 1.7041,0.26625 0.66567,0.23965 0.98519,0.61242 0.31951,0.37276 0.42601,0.95855 0.0799,0.34615 0.0799,1.27806 v 1.86387 q 0,1.94373 0.0799,2.47625 0.1065,0.50591 0.37276,0.98518 h -1.46445 q -0.21301,-0.42601 -0.2929,-1.0118 z m -0.1065,-3.1153 q -0.77217,0.29289 -2.28989,0.5059 -0.85205,0.13314 -1.22481,0.2929 -0.34615,0.15975 -0.53254,0.45265 -0.18638,0.29289 -0.18638,0.66565 0,0.55917 0.3994,0.93194 0.42602,0.37276 1.25145,0.37276 0.79878,0 1.4112,-0.34613 0.63903,-0.37278 0.95855,-0.98519 0.21302,-0.45265 0.21302,-1.38458 z m 6.6306,2.87567 0.1864,1.22481 q -0.58578,0.13314 -1.03843,0.13314 -0.77217,0 -1.1982,-0.23965 -0.3994,-0.23963 -0.58578,-0.6124 -0.15976,-0.3994 -0.15976,-1.67747 v -4.73951 h -1.03843 v -1.09169 h 1.03843 v -2.02361 l 1.38457,-0.85205 v 2.87566 h 1.4112 v 1.09169 h -1.4112 v 4.81938 q 0,0.61242 0.0799,0.7988 0.0799,0.15976 0.23963,0.26627 0.15977,0.0799 0.47929,0.0799 0.23963,0 0.6124,-0.0532 z m 1.3544,1.25143 v -11.3695 h 1.4112 v 4.07385 q 0.98518,-1.14493 2.47626,-1.14493 0.9053,0 1.57097,0.37277 0.69228,0.37276 0.98518,1.0118 0.29289,0.61241 0.29289,1.83723 v 5.21878 h -1.4112 v -5.21878 q 0,-1.06507 -0.45265,-1.51772 -0.45265,-0.47927 -1.27807,-0.47927 -0.63904,0 -1.1982,0.31952 -0.53253,0.31952 -0.77217,0.87867 -0.21301,0.53253 -0.21301,1.51771 v 4.49987 z m 14.48543,-2.66265 1.43782,0.18639 q -0.31951,1.27808 -1.25143,1.97036 -0.93193,0.69229 -2.36977,0.69229 -1.8106,0 -2.87565,-1.11831 -1.03843,-1.11831 -1.03843,-3.1153 0,-2.07686 1.06505,-3.22181 1.06506,-1.17155 2.76915,-1.17155 1.67748,0 2.71591,1.14493 1.03844,1.11832 1.03844,3.16855 0,0.1065 0,0.37277 h -6.15073 q 0.0799,1.35795 0.77218,2.07687 0.69228,0.71891 1.73071,0.71891 0.77217,0 1.3047,-0.3994 0.53252,-0.3994 0.85205,-1.3047 z m -4.57976,-2.26325 h 4.60638 q -0.1065,-1.03843 -0.53253,-1.54433 -0.66565,-0.7988 -1.73072,-0.7988 -0.95855,0 -1.62421,0.63905 -0.63904,0.63903 -0.71892,1.70408 z m 7.77556,4.9259 v -8.2542 h 1.25144 v 1.25144 q 0.47929,-0.87867 0.87867,-1.14494 0.42603,-0.29288 0.9053,-0.29288 0.71892,0 1.43784,0.45265 l -0.47927,1.30468 q -0.50592,-0.29288 -1.03844,-0.29288 -0.45265,0 -0.82543,0.26627 -0.34613,0.26626 -0.5059,0.77216 -0.23963,0.74554 -0.23963,1.62422 v 4.31348 z m 9.92294,0 v -11.3695 h 8.22759 v 1.33132 h -6.70988 v 3.48807 h 6.28385 v 1.33133 h -6.28385 v 3.88746 h 6.97613 v 1.33132 z m 12.67936,0 -3.1153,-8.2542 h 1.46445 l 1.75735,4.95252 q 0.2929,0.7988 0.53253,1.65085 0.18638,-0.63904 0.53253,-1.57097 l 1.83722,-5.0324 h 1.43784 l -3.14192,8.2542 z m 11.30294,-2.66265 1.43782,0.18639 q -0.31952,1.27808 -1.25144,1.97036 -0.93193,0.69229 -2.36976,0.69229 -1.8106,0 -2.87565,-1.11831 -1.03844,-1.11831 -1.03844,-3.1153 0,-2.07686 1.06506,-3.22181 1.06506,-1.17155 2.76916,-1.17155 1.67747,0 2.7159,1.14493 1.03843,1.11832 1.03843,3.16855 0,0.1065 0,0.37277 h -6.15072 q 0.0799,1.35795 0.77217,2.07687 0.69229,0.71891 1.73072,0.71891 0.77217,0 1.3047,-0.3994 0.53253,-0.3994 0.85205,-1.3047 z m -4.57976,-2.26325 h 4.60638 q -0.1065,-1.03843 -0.53253,-1.54433 -0.66566,-0.7988 -1.73072,-0.7988 -0.95855,0 -1.62422,0.63905 -0.63903,0.63903 -0.71891,1.70408 z m 7.77555,4.9259 v -8.2542 h 1.27808 v 1.17157 q 0.9053,-1.35795 2.60939,-1.35795 0.74555,0 1.35795,0.29288 0.63904,0.26627 0.93193,0.69229 0.31952,0.42603 0.45265,1.03843 0.0799,0.37278 0.0799,1.35795 v 5.05903 h -1.41121 v -5.00577 q 0,-0.85205 -0.15976,-1.27808 -0.15976,-0.42601 -0.58578,-0.66565 -0.3994,-0.26627 -0.95855,-0.26627 -0.87868,0 -1.54434,0.55916 -0.63903,0.55915 -0.63903,2.15674 v 4.49987 z m 11.90267,-1.25143 0.18638,1.22481 q -0.58578,0.13314 -1.03843,0.13314 -0.77217,0 -1.1982,-0.23965 -0.3994,-0.23963 -0.58578,-0.6124 -0.15975,-0.3994 -0.15975,-1.67747 v -4.73951 h -1.03844 v -1.09169 h 1.03844 v -2.02361 l 1.38457,-0.85205 v 2.87566 h 1.41121 v 1.09169 h -1.41121 v 4.81938 q 0,0.61242 0.0799,0.7988 0.0799,0.15976 0.23965,0.26627 0.15975,0.0799 0.47927,0.0799 0.23963,0 0.61241,-0.0532 z"
       fill-rule="nonzero"
       id="path30"
       style="stroke-width:1.7041" />
    <path
       fill="#000000"
       fill-opacity="0"
       d="m 187.21451,398.1078 h 145.34453 v 27.15818 H 187.21451 Z"
       fill-rule="evenodd"
       id="path31"
       style="stroke-width:1.7041" />
    <path
       fill="#000000"
       d="m 203.77618,425.19782 v -11.36951 h 3.91409 q 1.33132,0 2.02361,0.15976 0.98518,0.21301 1.67746,0.79879 0.9053,0.77217 1.33133,1.97036 0.45265,1.17156 0.45265,2.68928 0,1.3047 -0.29289,2.3165 -0.29289,0.98518 -0.77217,1.65083 -0.47927,0.63905 -1.03843,1.01182 -0.55915,0.37277 -1.35795,0.58578 -0.79879,0.18639 -1.83722,0.18639 z m 1.51771,-1.33132 h 2.423 q 1.11832,0 1.75735,-0.21302 0.63904,-0.21301 1.03844,-0.58578 0.53253,-0.55917 0.82541,-1.43783 0.2929,-0.9053 0.2929,-2.21 0,-1.78397 -0.58578,-2.74252 -0.58579,-0.95857 -1.4112,-1.27808 -0.61242,-0.23964 -1.97037,-0.23964 h -2.36975 z m 15.42031,-1.33133 1.43784,0.18638 q -0.31952,1.27807 -1.25145,1.97036 -0.93192,0.69229 -2.36975,0.69229 -1.8106,0 -2.87567,-1.11832 -1.03843,-1.1183 -1.03843,-3.1153 0,-2.07685 1.06506,-3.2218 1.06506,-1.17156 2.76915,-1.17156 1.67747,0 2.71591,1.14494 1.03843,1.11831 1.03843,3.16855 0,0.10651 0,0.37277 h -6.15072 q 0.0799,1.35795 0.77217,2.07687 0.69228,0.71891 1.73072,0.71891 0.77218,0 1.3047,-0.39939 0.53253,-0.3994 0.85204,-1.3047 z m -4.57975,-2.26325 h 4.60639 q -0.10651,-1.03844 -0.53254,-1.54434 -0.66566,-0.7988 -1.73071,-0.7988 -0.95857,0 -1.62422,0.63904 -0.63903,0.63903 -0.71892,1.7041 z m 7.53592,5.61818 1.35796,0.18638 q 0.0799,0.63905 0.47926,0.93194 0.50591,0.37276 1.41121,0.37276 0.95856,0 1.49108,-0.3994 0.53253,-0.37276 0.71891,-1.06505 0.10651,-0.42603 0.10651,-1.8106 -0.93193,1.09169 -2.28988,1.09169 -1.7041,0 -2.63602,-1.22482 -0.93193,-1.22482 -0.93193,-2.95555 0,-1.17155 0.42603,-2.15674 0.42601,-1.01181 1.22481,-1.54433 0.82542,-0.55916 1.91711,-0.55916 1.46445,0 2.42301,1.19819 v -1.01181 h 1.27807 v 7.1359 q 0,1.91711 -0.3994,2.7159 -0.37277,0.82543 -1.22482,1.27808 -0.85205,0.47927 -2.1035,0.47927 -1.46445,0 -2.36975,-0.66567 -0.9053,-0.66565 -0.87867,-1.99698 z m 1.14494,-4.95252 q 0,1.62422 0.63903,2.36975 0.66567,0.74555 1.62422,0.74555 0.95855,0 1.59758,-0.74555 0.66567,-0.74553 0.66567,-2.34313 0,-1.49108 -0.66567,-2.26325 -0.66565,-0.77217 -1.62421,-0.77217 -0.93192,0 -1.59759,0.77217 -0.63903,0.74555 -0.63903,2.23663 z m 7.93531,4.26024 v -8.25422 h 1.25145 v 1.25145 q 0.47928,-0.87867 0.87868,-1.14494 0.42602,-0.29289 0.9053,-0.29289 0.7189,0 1.43782,0.45265 l -0.47927,1.3047 q -0.5059,-0.29289 -1.03843,-0.29289 -0.45265,0 -0.82542,0.26627 -0.34615,0.26625 -0.50592,0.77216 -0.23963,0.74554 -0.23963,1.62422 v 4.31349 z m 10.67205,-1.01181 q -0.77216,0.66566 -1.49108,0.93192 -0.71892,0.26627 -1.54433,0.26627 -1.35797,0 -2.07687,-0.66567 -0.71892,-0.66565 -0.71892,-1.70408 0,-0.58579 0.26627,-1.09169 0.26625,-0.50591 0.7189,-0.79879 0.45265,-0.31952 1.01182,-0.47929 0.3994,-0.1065 1.22481,-0.18638 1.7041,-0.21302 2.50289,-0.47927 0,-0.2929 0,-0.37278 0,-0.85205 -0.3994,-1.19819 -0.53252,-0.47928 -1.57095,-0.47928 -0.98519,0 -1.46447,0.34615 -0.47927,0.34614 -0.69228,1.22482 l -1.35795,-0.18639 q 0.18638,-0.87868 0.61241,-1.4112 0.42602,-0.55916 1.22482,-0.85205 0.79879,-0.29289 1.86385,-0.29289 1.06505,0 1.7041,0.26626 0.66565,0.23964 0.98517,0.61242 0.31952,0.37277 0.42603,0.95855 0.0799,0.34615 0.0799,1.27807 v 1.86385 q 0,1.94373 0.0799,2.47626 0.1065,0.5059 0.37277,0.98519 h -1.46445 q -0.21302,-0.42602 -0.29289,-1.01181 z m -0.1065,-3.1153 q -0.77217,0.29289 -2.28987,0.50591 -0.85205,0.13313 -1.22482,0.29288 -0.34614,0.15977 -0.53253,0.45265 -0.18638,0.2929 -0.18638,0.66567 0,0.55915 0.39938,0.93193 0.42604,0.37277 1.25145,0.37277 0.7988,0 1.4112,-0.34615 0.63904,-0.37277 0.95857,-0.98519 0.213,-0.45265 0.213,-1.38456 z m 8.9205,4.12711 v -1.03844 q -0.77216,1.22482 -2.28988,1.22482 -0.98518,0 -1.8106,-0.53253 -0.82542,-0.55915 -1.3047,-1.51771 -0.45265,-0.98518 -0.45265,-2.23663 0,-1.25143 0.3994,-2.23662 0.42602,-1.01181 1.25145,-1.54433 0.82542,-0.55916 1.83722,-0.55916 0.74555,0 1.33133,0.31951 0.58578,0.31952 0.95855,0.82543 v -4.07385 h 1.38457 v 11.36951 z m -4.42,-4.10049 q 0,1.57097 0.66567,2.36977 0.66565,0.77216 1.59758,0.77216 0.9053,0 1.54434,-0.74554 0.63903,-0.74554 0.63903,-2.28987 0,-1.7041 -0.66566,-2.47627 -0.63904,-0.7988 -1.59759,-0.7988 -0.93192,0 -1.57096,0.77217 -0.61241,0.74555 -0.61241,2.39638 z m 13.55351,1.43784 1.43782,0.18638 q -0.31952,1.27807 -1.25144,1.97036 -0.93193,0.69229 -2.36976,0.69229 -1.8106,0 -2.87565,-1.11832 -1.03844,-1.1183 -1.03844,-3.1153 0,-2.07685 1.06506,-3.2218 1.06506,-1.17156 2.76916,-1.17156 1.67747,0 2.7159,1.14494 1.03843,1.11831 1.03843,3.16855 0,0.10651 0,0.37277 h -6.15071 q 0.0799,1.35795 0.77216,2.07687 0.69229,0.71891 1.73072,0.71891 0.77217,0 1.3047,-0.39939 0.53253,-0.3994 0.85205,-1.3047 z m -4.57976,-2.26325 h 4.60638 q -0.1065,-1.03844 -0.53253,-1.54434 -0.66566,-0.7988 -1.73072,-0.7988 -0.95855,0 -1.62422,0.63904 -0.63903,0.63903 -0.71891,1.7041 z m 13.12748,4.9259 v -1.03844 q -0.77216,1.22482 -2.28988,1.22482 -0.98518,0 -1.8106,-0.53253 -0.82542,-0.55915 -1.3047,-1.51771 -0.45265,-0.98518 -0.45265,-2.23663 0,-1.25143 0.3994,-2.23662 0.42602,-1.01181 1.25145,-1.54433 0.82542,-0.55916 1.83722,-0.55916 0.74555,0 1.33133,0.31951 0.58578,0.31952 0.95855,0.82543 v -4.07385 h 1.38458 v 11.36951 z m -4.42,-4.10049 q 0,1.57097 0.66567,2.36977 0.66565,0.77216 1.59758,0.77216 0.9053,0 1.54434,-0.74554 0.63903,-0.74554 0.63903,-2.28987 0,-1.7041 -0.66565,-2.47627 -0.63905,-0.7988 -1.5976,-0.7988 -0.93192,0 -1.57095,0.77217 -0.61242,0.74555 -0.61242,2.39638 z m 12.0056,0.45265 1.41122,-0.13313 q 0.1065,0.85205 0.47927,1.41121 0.37277,0.53252 1.14493,0.87867 0.77218,0.34615 1.73073,0.34615 0.87867,0 1.5177,-0.26627 0.66567,-0.26626 0.98519,-0.69229 0.31951,-0.45265 0.31951,-0.98517 0,-0.53253 -0.31951,-0.93193 -0.29289,-0.3994 -1.0118,-0.66567 -0.45265,-0.18638 -2.02362,-0.55915 -1.57097,-0.37277 -2.18337,-0.71892 -0.82543,-0.42602 -1.22482,-1.03843 -0.39939,-0.63903 -0.39939,-1.43783 0,-0.85205 0.47926,-1.59759 0.50592,-0.74555 1.43784,-1.14493 0.93193,-0.3994 2.1035,-0.3994 1.25143,0 2.20999,0.42602 0.98517,0.3994 1.49108,1.19819 0.53253,0.77217 0.55916,1.78397 l -1.43783,0.1065 q -0.1065,-1.06506 -0.7988,-1.62421 -0.66565,-0.55917 -1.97035,-0.55917 -1.35795,0 -1.99699,0.50591 -0.61241,0.50591 -0.61241,1.19819 0,0.61241 0.42603,1.01181 0.45265,0.39939 2.26325,0.82542 1.83722,0.39939 2.52951,0.71891 0.98517,0.45265 1.46446,1.17157 0.47928,0.69229 0.47928,1.59759 0,0.9053 -0.53253,1.73072 -0.50591,0.7988 -1.49109,1.25145 -0.95855,0.42602 -2.18338,0.42602 -1.54433,0 -2.58276,-0.45265 -1.03844,-0.45265 -1.65084,-1.33132 -0.58578,-0.9053 -0.61242,-2.05025 z m 13.98408,2.39639 0.1864,1.22481 q -0.58579,0.13314 -1.03844,0.13314 -0.77218,0 -1.19819,-0.23964 -0.3994,-0.23963 -0.58579,-0.61241 -0.15975,-0.39939 -0.15975,-1.67747 v -4.7395 h -1.03843 v -1.0917 h 1.03843 V 414.92 l 1.38457,-0.85205 v 2.87565 h 1.4112 v 1.0917 h -1.4112 v 4.81938 q 0,0.61242 0.0799,0.7988 0.0799,0.15975 0.23963,0.26627 0.15977,0.0799 0.47928,0.0799 0.23964,0 0.6124,-0.0532 z m 6.73294,0.23964 q -0.77216,0.66566 -1.49108,0.93192 -0.71892,0.26627 -1.54433,0.26627 -1.35795,0 -2.07687,-0.66567 -0.71892,-0.66565 -0.71892,-1.70408 0,-0.58579 0.26627,-1.09169 0.26627,-0.50591 0.71892,-0.79879 0.45265,-0.31952 1.0118,-0.47929 0.3994,-0.1065 1.22481,-0.18638 1.7041,-0.21302 2.5029,-0.47927 0,-0.2929 0,-0.37278 0,-0.85205 -0.3994,-1.19819 -0.53253,-0.47928 -1.57096,-0.47928 -0.98519,0 -1.46446,0.34615 -0.47928,0.34614 -0.69229,1.22482 l -1.35795,-0.18639 q 0.18638,-0.87868 0.61241,-1.4112 0.42602,-0.55916 1.22482,-0.85205 0.7988,-0.29289 1.86385,-0.29289 1.06506,0 1.7041,0.26626 0.66566,0.23964 0.98518,0.61242 0.31952,0.37277 0.42602,0.95855 0.0799,0.34615 0.0799,1.27807 v 1.86385 q 0,1.94373 0.0799,2.47626 0.1065,0.5059 0.37277,0.98519 h -1.46452 q -0.21301,-0.42602 -0.29289,-1.01181 z m -0.1065,-3.1153 q -0.77217,0.29289 -2.28988,0.50591 -0.85205,0.13313 -1.22482,0.29288 -0.34615,0.15977 -0.53253,0.45265 -0.18638,0.2929 -0.18638,0.66567 0,0.55915 0.3994,0.93193 0.42601,0.37277 1.25144,0.37277 0.79879,0 1.4112,-0.34615 0.63904,-0.37277 0.95856,-0.98519 0.21301,-0.45265 0.21301,-1.38456 z m 6.63061,2.87566 0.18638,1.22481 q -0.58577,0.13314 -1.03842,0.13314 -0.77218,0 -1.19819,-0.23964 -0.3994,-0.23963 -0.58579,-0.61241 -0.15975,-0.39939 -0.15975,-1.67747 v -4.7395 h -1.03843 v -1.0917 h 1.03843 V 414.92 l 1.38457,-0.85205 v 2.87565 h 1.4112 v 1.0917 h -1.4112 v 4.81938 q 0,0.61242 0.0799,0.7988 0.0799,0.15975 0.23963,0.26627 0.15976,0.0799 0.47928,0.0799 0.23964,0 0.6124,-0.0532 z m 6.99923,-1.4112 1.43783,0.18638 q -0.31951,1.27807 -1.25144,1.97036 -0.93192,0.69229 -2.36976,0.69229 -1.8106,0 -2.87566,-1.11832 -1.03843,-1.1183 -1.03843,-3.1153 0,-2.07685 1.06506,-3.2218 1.06505,-1.17156 2.76915,-1.17156 1.67747,0 2.7159,1.14494 1.03844,1.11831 1.03844,3.16855 0,0.10651 0,0.37277 h -6.15072 q 0.0799,1.35795 0.77217,2.07687 0.69228,0.71891 1.73071,0.71891 0.77217,0 1.3047,-0.39939 0.53254,-0.3994 0.85205,-1.3047 z m -4.57975,-2.26325 h 4.60638 q -0.1065,-1.03844 -0.53253,-1.54434 -0.66566,-0.7988 -1.73072,-0.7988 -0.95856,0 -1.62421,0.63904 -0.63904,0.63903 -0.71892,1.7041 z"
       fill-rule="nonzero"
       id="path32"
       style="stroke-width:1.7041" />
    <path
       fill="#000000"
       fill-opacity="0"
       d="m 282.71987,410.84603 58.61011,-7.94353"
       fill-rule="evenodd"
       id="path33"
       style="stroke-width:1.7041" />
    <path
       stroke="#000000"
       stroke-width="1.7041"
       stroke-linejoin="round"
       stroke-linecap="butt"
       d="m 282.71987,410.84603 48.47816,-6.57034"
       fill-rule="evenodd"
       id="path34" />
    <path
       fill="#000000"
       stroke="#000000"
       stroke-width="1.7041"
       stroke-linecap="butt"
       d="m 331.57605,407.06492 7.28527,-3.82782 -8.04131,-1.75059 z"
       fill-rule="evenodd"
       id="path35" />
    <path
       fill="#000000"
       fill-opacity="0"
       d="M 662.01733,341.21519 608.29139,327.15302"
       fill-rule="evenodd"
       id="path36"
       style="stroke-width:1.7041" />
    <path
       stroke="#000000"
       stroke-width="1.7041"
       stroke-linejoin="round"
       stroke-linecap="butt"
       d="M 662.01733,341.21519 618.18276,329.74198"
       fill-rule="evenodd"
       id="path37" />
    <path
       fill="#000000"
       stroke="#000000"
       stroke-width="1.7041"
       stroke-linecap="butt"
       d="m 618.89549,327.01899 -8.19404,0.76483 6.76863,4.68111 z"
       fill-rule="evenodd"
       id="path38" />
    <path
       fill="#000000"
       fill-opacity="0"
       d="M 657.12873,353.43455 H 775.63711 V 370.556 H 657.12873 Z"
       fill-rule="evenodd"
       id="path39"
       style="stroke-width:1.7041" />
    <path
       fill="#000000"
       fill-opacity="0"
       d="m 611.4536,332.53817 h 170.3021 v 27.15819 H 611.4536 Z"
       fill-rule="evenodd"
       id="path40"
       style="stroke-width:1.7041" />
    <path
       fill="#000000"
       d="m 628.04189,359.62817 v -11.36951 h 5.03241 q 1.54434,0 2.3165,0.31952 0.7988,0.29289 1.27807,1.06505 0.47928,0.77217 0.47928,1.7041 0,1.22482 -0.79879,2.05024 -0.77217,0.82543 -2.42302,1.06506 0.61242,0.26627 0.90531,0.55915 0.66566,0.61242 1.25144,1.51772 l 1.99698,3.08867 h -1.9171 l -1.49108,-2.36976 q -0.66567,-1.01181 -1.09169,-1.54433 -0.42603,-0.55916 -0.77216,-0.77218 -0.31952,-0.23963 -0.66567,-0.31952 -0.26626,-0.0533 -0.85205,-0.0533 h -1.75735 v 5.05904 z m 1.49108,-6.36374 h 3.24844 q 1.03843,0 1.62421,-0.213 0.58579,-0.21301 0.87868,-0.66566 0.29289,-0.47929 0.29289,-1.03844 0,-0.7988 -0.58578,-1.3047 -0.58579,-0.53253 -1.83724,-0.53253 h -3.6212 z m 15.42033,3.70109 1.43783,0.18638 q -0.31951,1.27808 -1.25145,1.97037 -0.93193,0.69228 -2.36975,0.69228 -1.8106,0 -2.87566,-1.11832 -1.03844,-1.1183 -1.03844,-3.11528 0,-2.07687 1.06507,-3.22182 1.06505,-1.17156 2.76915,-1.17156 1.67747,0 2.7159,1.14494 1.03843,1.11831 1.03843,3.16855 0,0.10651 0,0.37277 h -6.15071 q 0.0799,1.35795 0.77216,2.07687 0.69229,0.71892 1.73072,0.71892 0.77217,0 1.3047,-0.3994 0.53253,-0.3994 0.85205,-1.3047 z m -4.57975,-2.26325 h 4.60637 q -0.1065,-1.03844 -0.53252,-1.54434 -0.66567,-0.7988 -1.73073,-0.7988 -0.95855,0 -1.62422,0.63904 -0.63903,0.63904 -0.7189,1.7041 z m 7.21639,2.47626 1.38458,-0.23963 q 0.13314,0.85203 0.66567,1.30468 0.53252,0.42604 1.46445,0.42604 0.98518,0 1.43783,-0.3994 0.47927,-0.3994 0.47927,-0.9053 0,-0.47929 -0.42602,-0.74554 -0.29289,-0.1864 -1.43783,-0.47928 -1.5177,-0.3994 -2.13012,-0.66567 -0.58578,-0.29288 -0.9053,-0.79878 -0.29288,-0.50592 -0.29288,-1.0917 0,-0.55915 0.23963,-1.0118 0.26627,-0.47928 0.69229,-0.7988 0.34615,-0.23963 0.9053,-0.39939 0.55916,-0.18639 1.1982,-0.18639 0.98517,0 1.70408,0.2929 0.74555,0.26626 1.09169,0.74553 0.34614,0.47928 0.47928,1.27808 l -1.35795,0.18638 q -0.1065,-0.63903 -0.55915,-0.98518 -0.45265,-0.34615 -1.25145,-0.34615 -0.95855,0 -1.38458,0.31952 -0.39939,0.2929 -0.39939,0.74555 0,0.26626 0.15975,0.47927 0.18638,0.21301 0.53253,0.37278 0.21302,0.0799 1.25145,0.34613 1.46445,0.3994 2.05024,0.66567 0.58578,0.23963 0.9053,0.71892 0.34614,0.47928 0.34614,1.19818 0,0.6923 -0.39939,1.33133 -0.3994,0.6124 -1.17157,0.95855 -0.77217,0.31952 -1.73072,0.31952 -1.62422,0 -2.47626,-0.66567 -0.82542,-0.66565 -1.06507,-1.97035 z m 11.56921,1.19819 0.18638,1.22481 q -0.58578,0.13314 -1.03843,0.13314 -0.77217,0 -1.19819,-0.23964 -0.3994,-0.23963 -0.58578,-0.6124 -0.15976,-0.3994 -0.15976,-1.67748 v -4.7395 h -1.03844 v -1.09169 h 1.03844 v -2.02361 l 1.38458,-0.85205 v 2.87566 h 1.4112 v 1.09169 h -1.4112 v 4.81938 q 0,0.61242 0.0799,0.7988 0.0799,0.15975 0.23964,0.26627 0.15975,0.0799 0.47928,0.0799 0.23963,0 0.6124,-0.0533 z m 0.84851,-2.87566 q 0,-2.28988 1.27807,-3.38156 1.06507,-0.93193 2.58277,-0.93193 1.7041,0 2.76915,1.11831 1.09168,1.11832 1.09168,3.08867 0,1.5976 -0.47927,2.5029 -0.47928,0.9053 -1.38458,1.4112 -0.9053,0.5059 -1.99698,0.5059 -1.73072,0 -2.79578,-1.09168 -1.06506,-1.11832 -1.06506,-3.22181 z m 1.43784,0 q 0,1.59759 0.69228,2.39639 0.69229,0.77217 1.73072,0.77217 1.03843,0 1.73072,-0.7988 0.69229,-0.79879 0.69229,-2.42301 0,-1.51771 -0.69229,-2.28988 -0.69229,-0.7988 -1.73072,-0.7988 -1.03843,0 -1.73072,0.7988 -0.69228,0.77217 -0.69228,2.34313 z m 7.90867,4.12711 v -8.25421 h 1.25145 v 1.25144 q 0.47928,-0.87867 0.87868,-1.14493 0.42602,-0.2929 0.9053,-0.2929 0.71892,0 1.43782,0.45265 l -0.47927,1.3047 q -0.5059,-0.29289 -1.03843,-0.29289 -0.45265,0 -0.82542,0.26627 -0.34615,0.26626 -0.50591,0.77216 -0.23963,0.74554 -0.23963,1.62422 v 4.31349 z m 10.67203,-1.01181 q -0.77218,0.66566 -1.49108,0.93192 -0.71892,0.26627 -1.54435,0.26627 -1.35795,0 -2.07686,-0.66567 -0.71891,-0.66565 -0.71891,-1.70408 0,-0.58579 0.26626,-1.09169 0.26626,-0.50591 0.71891,-0.79879 0.45265,-0.31952 1.01182,-0.47929 0.3994,-0.1065 1.22481,-0.18638 1.70409,-0.213 2.50289,-0.47927 0,-0.2929 0,-0.37278 0,-0.85204 -0.3994,-1.19818 -0.53252,-0.47929 -1.57095,-0.47929 -0.98519,0 -1.46447,0.34615 -0.47927,0.34615 -0.69228,1.22482 l -1.35795,-0.18638 q 0.18638,-0.87869 0.6124,-1.41121 0.42603,-0.55916 1.22482,-0.85204 0.7988,-0.2929 1.86386,-0.2929 1.06505,0 1.70409,0.26626 0.66566,0.23965 0.98518,0.61242 0.31952,0.37277 0.42603,0.95855 0.0799,0.34615 0.0799,1.27807 v 1.86386 q 0,1.94373 0.0799,2.47625 0.1065,0.5059 0.37277,0.98519 h -1.46445 q -0.21302,-0.42602 -0.29289,-1.01181 z m -0.1065,-3.1153 q -0.77217,0.29289 -2.28987,0.50591 -0.85205,0.13313 -1.22483,0.29288 -0.34613,0.15977 -0.53252,0.45265 -0.18638,0.2929 -0.18638,0.66567 0,0.55916 0.39939,0.93193 0.42603,0.37277 1.25144,0.37277 0.7988,0 1.41121,-0.34615 0.63903,-0.37277 0.95855,-0.98517 0.21301,-0.45265 0.21301,-1.38458 z m 6.63062,2.87566 0.18639,1.22481 q -0.58579,0.13314 -1.03844,0.13314 -0.77216,0 -1.19818,-0.23964 -0.3994,-0.23963 -0.58579,-0.6124 -0.15976,-0.3994 -0.15976,-1.67748 v -4.7395 h -1.03843 v -1.09169 h 1.03843 v -2.02361 l 1.38458,-0.85205 v 2.87566 h 1.4112 v 1.09169 h -1.4112 v 4.81938 q 0,0.61242 0.0799,0.7988 0.0799,0.15975 0.23964,0.26627 0.15976,0.0799 0.47927,0.0799 0.23965,0 0.61242,-0.0533 z m 1.38104,-8.52047 v -1.59759 h 1.38458 v 1.59759 z m 0,9.77192 v -8.25421 h 1.38458 v 8.25421 z m 2.99907,-4.12711 q 0,-2.28988 1.27807,-3.38156 1.06506,-0.93193 2.58276,-0.93193 1.7041,0 2.76917,1.11831 1.09168,1.11832 1.09168,3.08867 0,1.5976 -0.47928,2.5029 -0.47927,0.9053 -1.38457,1.4112 -0.9053,0.5059 -1.997,0.5059 -1.73071,0 -2.79577,-1.09168 -1.06506,-1.11832 -1.06506,-3.22181 z m 1.43783,0 q 0,1.59759 0.69229,2.39639 0.69228,0.77217 1.73071,0.77217 1.03844,0 1.73073,-0.7988 0.69229,-0.79879 0.69229,-2.42301 0,-1.51771 -0.69229,-2.28988 -0.69229,-0.7988 -1.73073,-0.7988 -1.03843,0 -1.73071,0.7988 -0.69229,0.77217 -0.69229,2.34313 z m 7.90869,4.12711 v -8.25421 h 1.27807 v 1.17156 q 0.9053,-1.35795 2.6094,-1.35795 0.74553,0 1.35795,0.2929 0.63903,0.26626 0.93192,0.69228 0.31953,0.42603 0.45265,1.03843 0.0799,0.37277 0.0799,1.35795 v 5.05904 h -1.4112 v -5.00579 q 0,-0.85203 -0.15976,-1.27806 -0.15976,-0.42602 -0.58577,-0.66567 -0.3994,-0.26627 -0.95857,-0.26627 -0.87867,0 -1.54433,0.55917 -0.63903,0.55915 -0.63903,2.15675 v 4.49987 z m 12.93751,-3.64784 1.4112,-0.13313 q 0.1065,0.85205 0.47927,1.41121 0.37278,0.53252 1.14495,0.87867 0.77216,0.34615 1.73071,0.34615 0.87867,0 1.51772,-0.26626 0.66565,-0.26627 0.98517,-0.69229 0.31952,-0.45265 0.31952,-0.98518 0,-0.53253 -0.31952,-0.93193 -0.29289,-0.3994 -1.0118,-0.66567 -0.45265,-0.18638 -2.02362,-0.55915 -1.57096,-0.37277 -2.18337,-0.71892 -0.82541,-0.42602 -1.22481,-1.03843 -0.3994,-0.63903 -0.3994,-1.43783 0,-0.85204 0.47928,-1.59759 0.5059,-0.74553 1.43782,-1.14493 0.93193,-0.3994 2.1035,-0.3994 1.25145,0 2.21,0.42602 0.98518,0.3994 1.49108,1.19819 0.53253,0.77217 0.55915,1.78397 l -1.43783,0.10651 q -0.1065,-1.06507 -0.79879,-1.62422 -0.66566,-0.55916 -1.97036,-0.55916 -1.35795,0 -1.99699,0.50591 -0.61241,0.5059 -0.61241,1.19818 0,0.61242 0.42603,1.01181 0.45265,0.39939 2.26325,0.82543 1.83722,0.39939 2.52952,0.71891 0.98518,0.45265 1.46445,1.17156 0.47928,0.69229 0.47928,1.59759 0,0.9053 -0.53253,1.73072 -0.5059,0.7988 -1.49109,1.25145 -0.95855,0.42602 -2.18336,0.42602 -1.54434,0 -2.58277,-0.45265 -1.03843,-0.45265 -1.65085,-1.33132 -0.58578,-0.9053 -0.6124,-2.05025 z m 13.9841,2.39639 0.18638,1.22481 q -0.58578,0.13314 -1.03843,0.13314 -0.77217,0 -1.19819,-0.23964 -0.3994,-0.23963 -0.58578,-0.6124 -0.15976,-0.3994 -0.15976,-1.67748 v -4.7395 h -1.03844 v -1.09169 h 1.03844 v -2.02361 l 1.38458,-0.85205 v 2.87566 h 1.4112 v 1.09169 h -1.4112 v 4.81938 q 0,0.61242 0.0799,0.7988 0.0799,0.15975 0.23965,0.26627 0.15975,0.0799 0.47927,0.0799 0.23965,0 0.61241,-0.0533 z m 6.7329,0.23964 q -0.77216,0.66566 -1.49108,0.93192 -0.71891,0.26627 -1.54433,0.26627 -1.35795,0 -2.07687,-0.66567 -0.71892,-0.66565 -0.71892,-1.70408 0,-0.58579 0.26627,-1.09169 0.26627,-0.50591 0.71892,-0.79879 0.45265,-0.31952 1.01181,-0.47929 0.39939,-0.1065 1.22482,-0.18638 1.70408,-0.213 2.50288,-0.47927 0,-0.2929 0,-0.37278 0,-0.85204 -0.3994,-1.19818 -0.53253,-0.47929 -1.57096,-0.47929 -0.98517,0 -1.46445,0.34615 -0.47929,0.34615 -0.69229,1.22482 l -1.35795,-0.18638 q 0.18639,-0.87869 0.6124,-1.41121 0.42603,-0.55916 1.22482,-0.85204 0.7988,-0.2929 1.86386,-0.2929 1.06506,0 1.70409,0.26626 0.66567,0.23965 0.98518,0.61242 0.31952,0.37277 0.42602,0.95855 0.0799,0.34615 0.0799,1.27807 v 1.86386 q 0,1.94373 0.0799,2.47625 0.10651,0.5059 0.37277,0.98519 h -1.46445 q -0.21302,-0.42602 -0.2929,-1.01181 z m -0.1065,-3.1153 q -0.77216,0.29289 -2.28988,0.50591 -0.85205,0.13313 -1.22482,0.29288 -0.34613,0.15977 -0.53253,0.45265 -0.18638,0.2929 -0.18638,0.66567 0,0.55916 0.3994,0.93193 0.42603,0.37277 1.25145,0.37277 0.79879,0 1.4112,-0.34615 0.63903,-0.37277 0.95855,-0.98517 0.21301,-0.45265 0.21301,-1.38458 z m 6.63062,2.87566 0.18639,1.22481 q -0.58579,0.13314 -1.03844,0.13314 -0.77216,0 -1.19819,-0.23964 -0.39939,-0.23963 -0.58579,-0.6124 -0.15975,-0.3994 -0.15975,-1.67748 v -4.7395 h -1.03843 v -1.09169 h 1.03843 v -2.02361 l 1.38457,-0.85205 v 2.87566 h 1.41121 v 1.09169 h -1.41121 v 4.81938 q 0,0.61242 0.0799,0.7988 0.0799,0.15975 0.23964,0.26627 0.15976,0.0799 0.47927,0.0799 0.23964,0 0.61242,-0.0533 z m 6.99918,-1.4112 1.43783,0.18638 q -0.31952,1.27808 -1.25145,1.97037 -0.93192,0.69228 -2.36975,0.69228 -1.8106,0 -2.87567,-1.11832 -1.03837,-1.1183 -1.03837,-3.11528 0,-2.07687 1.065,-3.22182 1.06506,-1.17156 2.76916,-1.17156 1.67746,0 2.7159,1.14494 1.03843,1.11831 1.03843,3.16855 0,0.10651 0,0.37277 h -6.15072 q 0.0799,1.35795 0.77217,2.07687 0.69228,0.71892 1.73072,0.71892 0.77216,0 1.3047,-0.3994 0.53253,-0.3994 0.85205,-1.3047 z m -4.57976,-2.26325 h 4.60639 q -0.1065,-1.03844 -0.53253,-1.54434 -0.66567,-0.7988 -1.73072,-0.7988 -0.95857,0 -1.62422,0.63904 -0.63903,0.63904 -0.71892,1.7041 z"
       fill-rule="nonzero"
       id="path41"
       style="stroke-width:1.7041" />
    <path
       fill="#000000"
       fill-opacity="0"
       d="m 414.69998,229.41585 h 173.95184 v 46.05081 H 414.69998 Z"
       fill-rule="evenodd"
       id="path42"
       style="stroke-width:1.7041" />
    <path
       fill="#000000"
       d="m 432.19357,270.9276 v -19.51721 h 8.6536 q 2.6094,0 3.96735,0.53253 1.35795,0.5059 2.15675,1.83722 0.82542,1.33133 0.82542,2.95554 0,2.07687 -1.35795,3.5147 -1.33132,1.4112 -4.15374,1.78397 1.03844,0.5059 1.57097,0.98518 1.11831,1.03844 2.13012,2.58277 l 3.40818,5.3253 h -3.24842 l -2.58277,-4.07385 q -1.14494,-1.75735 -1.89048,-2.68928 -0.71892,-0.93193 -1.3047,-1.3047 -0.55916,-0.37277 -1.17157,-0.5059 -0.42601,-0.1065 -1.43783,-0.1065 h -2.98216 v 8.68023 z m 2.58277,-10.91686 h 5.53831 q 1.78397,0 2.76915,-0.34614 1.0118,-0.37278 1.5177,-1.17157 0.53254,-0.82543 0.53254,-1.75735 0,-1.38458 -1.01181,-2.26325 -1.01181,-0.9053 -3.16855,-0.9053 h -6.17734 z m 26.42678,6.36373 2.47626,0.29288 q -0.58578,2.18338 -2.18337,3.38157 -1.57097,1.1982 -4.0206,1.1982 -3.1153,0 -4.9259,-1.91712 -1.8106,-1.9171 -1.8106,-5.35191 0,-3.56795 1.83723,-5.53832 1.83722,-1.97035 4.76614,-1.97035 2.82241,0 4.60638,1.94373 1.8106,1.9171 1.8106,5.40517 0,0.21302 0,0.63905 h -10.54408 q 0.13313,2.34312 1.3047,3.59457 1.19818,1.22481 2.95553,1.22481 1.33133,0 2.26325,-0.69228 0.93193,-0.69229 1.46446,-2.21 z m -7.85481,-3.88747 h 7.88143 q -0.15975,-1.78397 -0.9053,-2.66265 -1.14493,-1.38458 -2.95553,-1.38458 -1.65085,0 -2.79578,1.11832 -1.11832,1.09168 -1.22482,2.92891 z m 12.39463,4.20699 2.36975,-0.37277 q 0.18639,1.43783 1.09169,2.21 0.93192,0.74553 2.55614,0.74553 1.65085,0 2.44963,-0.66566 0.7988,-0.69229 0.7988,-1.59759 0,-0.7988 -0.69228,-1.27807 -0.50592,-0.31951 -2.44965,-0.79879 -2.63602,-0.66567 -3.67445,-1.14494 -1.0118,-0.5059 -1.54433,-1.35795 -0.50591,-0.85205 -0.50591,-1.89048 0,-0.95855 0.42602,-1.75735 0.42603,-0.7988 1.17157,-1.33132 0.55916,-0.42603 1.51771,-0.6923 0.98519,-0.29288 2.07687,-0.29288 1.67747,0 2.9289,0.47927 1.25145,0.47928 1.83724,1.3047 0.61241,0.7988 0.85204,2.18338 l -2.34313,0.31951 q -0.15975,-1.09168 -0.93192,-1.70409 -0.77218,-0.61242 -2.15675,-0.61242 -1.65084,0 -2.36976,0.55916 -0.69228,0.53254 -0.69228,1.25145 0,0.47927 0.29289,0.85204 0.29289,0.37278 0.9053,0.63903 0.37277,0.13314 2.13012,0.61242 2.52952,0.66566 3.54132,1.11831 1.0118,0.42602 1.57096,1.25144 0.58579,0.82543 0.58579,2.05025 0,1.19818 -0.71892,2.26325 -0.69228,1.03843 -2.02361,1.62421 -1.3047,0.58579 -2.95554,0.58579 -2.76916,0 -4.20698,-1.14495 -1.43784,-1.14493 -1.83723,-3.40818 z m 14.59131,-12.54107 v -2.74253 h 2.39638 v 2.74253 z m 0,16.77468 v -14.13866 h 2.39638 v 14.13866 z m 6.00427,0 v -19.51721 h 2.39639 v 19.51721 z m 6.11078,-16.77468 v -2.74253 h 2.39638 v 2.74253 z m 0,16.77468 v -14.13866 h 2.39638 v 14.13866 z m 15.72293,-4.55313 2.47626,0.29288 q -0.58578,2.18338 -2.18336,3.38157 -1.57097,1.1982 -4.0206,1.1982 -3.1153,0 -4.9259,-1.91712 -1.8106,-1.9171 -1.8106,-5.35191 0,-3.56795 1.83723,-5.53832 1.83722,-1.97035 4.76613,-1.97035 2.82241,0 4.60639,1.94373 1.8106,1.9171 1.8106,5.40517 0,0.21302 0,0.63905 h -10.54409 q 0.13313,2.34312 1.3047,3.59457 1.19819,1.22481 2.95554,1.22481 1.33132,0 2.26325,-0.69228 0.93193,-0.69229 1.46445,-2.21 z m -7.85481,-3.88747 h 7.88144 q -0.15976,-1.78397 -0.9053,-2.66265 -1.14494,-1.38458 -2.95554,-1.38458 -1.65084,0 -2.79578,1.11832 -1.11831,1.09168 -1.22482,2.92891 z m 13.35318,8.4406 v -14.13866 h 2.15675 v 1.99698 q 1.54433,-2.3165 4.49987,-2.3165 1.27807,0 2.34313,0.45265 1.06507,0.45265 1.59759,1.19818 0.53253,0.74555 0.74554,1.78399 0.13314,0.66566 0.13314,2.3165 v 8.70686 h -2.39639 v -8.60036 q 0,-1.46445 -0.29289,-2.18337 -0.26627,-0.74554 -0.98517,-1.17157 -0.6923,-0.42602 -1.65085,-0.42602 -1.54434,0 -2.66265,0.98519 -1.09169,0.95855 -1.09169,3.67445 v 7.72168 z m 24.37654,-5.19217 2.36976,0.31952 q -0.39939,2.423 -1.99699,3.80759 -1.57095,1.38458 -3.88747,1.38458 -2.90228,0 -4.68625,-1.89048 -1.75735,-1.91712 -1.75735,-5.45844 0,-2.28987 0.74554,-3.99396 0.77217,-1.73072 2.31651,-2.58277 1.57095,-0.85205 3.38155,-0.85205 2.31652,0 3.78097,1.17156 1.46445,1.14494 1.86385,3.30169 l -2.3165,0.34613 q -0.34615,-1.4112 -1.1982,-2.13011 -0.82542,-0.71892 -2.0236,-0.71892 -1.8106,0 -2.95555,1.3047 -1.1183,1.27808 -1.1183,4.10048 0,2.84904 1.09168,4.15374 1.09169,1.27806 2.84904,1.27806 1.4112,0 2.34313,-0.85205 0.95855,-0.87866 1.19818,-2.68927 z m 14.08542,0.63904 2.47625,0.29288 q -0.58578,2.18338 -2.18337,3.38157 -1.57096,1.1982 -4.0206,1.1982 -3.1153,0 -4.9259,-1.91712 -1.8106,-1.9171 -1.8106,-5.35191 0,-3.56795 1.83724,-5.53832 1.83722,-1.97035 4.76613,-1.97035 2.82241,0 4.60638,1.94373 1.8106,1.9171 1.8106,5.40517 0,0.21302 0,0.63905 h -10.54408 q 0.13313,2.34312 1.3047,3.59457 1.19818,1.22481 2.95553,1.22481 1.33133,0 2.26325,-0.69228 0.93194,-0.69229 1.46447,-2.21 z m -7.85482,-3.88747 h 7.88144 q -0.15976,-1.78397 -0.9053,-2.66265 -1.14494,-1.38458 -2.95554,-1.38458 -1.65085,0 -2.79578,1.11832 -1.11832,1.09168 -1.22482,2.92891 z"
       fill-rule="nonzero"
       id="path43"
       style="stroke-width:1.7041" />
    <path
       fill="#000000"
       d="m 437.11946,303.64619 v -17.22733 h -6.44361 v -2.28987 h 15.46999 v 2.28987 h -6.44362 v 17.22733 z m 10.34439,0 v -14.13865 h 2.15675 v 2.13012 q 0.82541,-1.49108 1.5177,-1.97037 0.69229,-0.47927 1.54433,-0.47927 1.1982,0 2.44965,0.77217 l -0.82543,2.21 q -0.87867,-0.50591 -1.75734,-0.50591 -0.77218,0 -1.41121,0.47928 -0.6124,0.45265 -0.87867,1.3047 -0.3994,1.27807 -0.3994,2.79578 v 7.40215 z m 9.10625,-16.77468 v -2.74252 h 2.39638 v 2.74252 z m 0,16.77468 v -14.13865 h 2.39638 v 14.13865 z m 15.27029,-1.75733 q -1.33132,1.14493 -2.55614,1.6242 -1.22481,0.45265 -2.63603,0.45265 -2.34312,0 -3.59457,-1.14493 -1.25144,-1.14494 -1.25144,-2.90229 0,-1.03843 0.47928,-1.89048 0.47927,-0.87867 1.22481,-1.38457 0.77217,-0.53253 1.73072,-0.7988 0.71892,-0.18638 2.13012,-0.34615 2.90228,-0.34613 4.28687,-0.82541 0,-0.50591 0,-0.63904 0,-1.46446 -0.66567,-2.05025 -0.93192,-0.82541 -2.74252,-0.82541 -1.67747,0 -2.5029,0.61241 -0.79878,0.58578 -1.17156,2.07687 l -2.34312,-0.31952 q 0.31951,-1.49108 1.03843,-2.42301 0.74554,-0.93194 2.13012,-1.4112 1.38457,-0.50591 3.19517,-0.50591 1.8106,0 2.92891,0.42602 1.14494,0.42603 1.67747,1.06507 0.53253,0.63903 0.74555,1.62421 0.13313,0.61241 0.13313,2.20999 v 3.19518 q 0,3.35494 0.13313,4.23362 0.15976,0.87867 0.61241,1.70408 h -2.50289 q -0.37277,-0.74553 -0.47928,-1.75733 z m -0.18638,-5.35193 q -1.3047,0.53253 -3.9141,0.9053 -1.49107,0.21301 -2.10349,0.47928 -0.61241,0.26626 -0.95855,0.79878 -0.31952,0.50592 -0.31952,1.11832 0,0.95855 0.71892,1.5976 0.74554,0.63903 2.13012,0.63903 1.38457,0 2.44963,-0.58578 1.09169,-0.61242 1.59759,-1.67747 0.3994,-0.7988 0.3994,-2.39638 z m 6.1374,7.10926 v -14.13865 h 2.15674 v 1.99699 q 1.54434,-2.31651 4.49988,-2.31651 1.27807,0 2.34313,0.45265 1.06505,0.45265 1.59759,1.19819 0.53253,0.74555 0.74554,1.78398 0.13314,0.66565 0.13314,2.3165 v 8.70685 h -2.39639 v -8.60035 q 0,-1.46445 -0.29289,-2.18336 -0.26627,-0.74555 -0.98519,-1.17157 -0.69228,-0.42602 -1.65083,-0.42602 -1.54434,0 -2.66265,0.98517 -1.09168,0.95856 -1.09168,3.67446 v 7.72167 z m 14.71113,1.17157 2.34313,0.34615 q 0.13313,1.09168 0.7988,1.57096 0.9053,0.66566 2.44963,0.66566 1.65084,0 2.55614,-0.66566 0.9053,-0.66566 1.22482,-1.86386 0.18639,-0.7189 0.18639,-3.08867 -1.57096,1.86385 -3.9141,1.86385 -2.92891,0 -4.5265,-2.10348 -1.59758,-2.1035 -1.59758,-5.05903 0,-2.02362 0.7189,-3.72771 0.74555,-1.70409 2.13013,-2.63603 1.4112,-0.93192 3.27505,-0.93192 2.50289,0 4.12711,2.02361 v -1.70409 h 2.21 v 12.22155 q 0,3.30169 -0.66567,4.68627 -0.66565,1.38457 -2.13012,2.18337 -1.46445,0.79879 -3.59457,0.79879 -2.52951,0 -4.10048,-1.14494 -1.54433,-1.14494 -1.49108,-3.43482 z m 1.99698,-8.49385 q 0,2.76916 1.09169,4.04723 1.11831,1.27807 2.76916,1.27807 1.65084,0 2.76915,-1.25144 1.11832,-1.27808 1.11832,-3.99398 0,-2.60938 -1.14495,-3.91408 -1.14494,-1.33133 -2.76915,-1.33133 -1.59759,0 -2.7159,1.3047 -1.11832,1.3047 -1.11832,3.86083 z m 13.56619,7.32228 v -19.5172 h 2.39639 v 19.5172 z m 15.7762,-4.55312 2.47626,0.29289 q -0.58578,2.18337 -2.18337,3.38157 -1.57096,1.19818 -4.0206,1.19818 -3.1153,0 -4.9259,-1.9171 -1.8106,-1.9171 -1.8106,-5.35192 0,-3.56795 1.83722,-5.53831 1.83724,-1.97036 4.76615,-1.97036 2.8224,0 4.60638,1.94374 1.8106,1.9171 1.8106,5.40517 0,0.21301 0,0.63903 h -10.54408 q 0.13312,2.34313 1.30469,3.59458 1.19819,1.22482 2.95554,1.22482 1.33132,0 2.26325,-0.69229 0.93192,-0.69229 1.46446,-2.21 z m -7.85482,-3.88746 h 7.88145 q -0.15977,-1.78398 -0.9053,-2.66265 -1.14495,-1.38458 -2.95555,-1.38458 -1.65084,0 -2.79577,1.11831 -1.11832,1.09169 -1.22483,2.92892 z"
       fill-rule="nonzero"
       id="path44"
       style="stroke-width:1.7041" />
  </g>
</svg>
